Coordinates
version=1
nRows=10
nColumns=22
inDegrees=yes

Units are S.I. units (second, meters, Newtons, ...)
If the header above contains a line with 'inDegrees', this indicates whether rotational values are in degrees (yes) or radians (no).

endheader
time	pelvis_tilt	pelvis_list	pelvis_rotation	pelvis_tx	pelvis_ty	pelvis_tz	hip_flexion_r	hip_adduction_r	hip_rotation_r	knee_angle_r	ankle_angle_r	subtalar_angle_r	hip_flexion_l	hip_adduction_l	hip_rotation_l	knee_angle_l	ankle_angle_l	subtalar_angle_l	lumbar_extension	lumbar_bending	lumbar_rotation
      1.49000000	      4.43835583	     -5.08372453	     45.21701434	      0.17110234	      0.89475777	      0.16584241	    -14.44635659	      5.81496671	     -4.57965316	    -16.31492214	     16.09610023	      4.25962243	     32.00447069	     -7.62468934	    -21.69842780	    -23.43018549	      3.35824303	     -7.89663999	     -5.37464932	      2.27399965	      8.68035303
      1.50000000	      4.01740267	     -4.84348396	     45.29629756	      0.17806538	      0.89455859	      0.15697654	    -14.58455728	      5.23437886	     -4.47575882	    -17.09083622	     15.22941513	      4.53067074	     32.09877693	     -7.29472617	    -21.83442260	    -24.67475233	      2.58837098	     -9.17303086	     -4.87860552	      1.57611363	      8.60335079
      1.51000000	      3.55228545	     -4.52647701	     45.50329644	      0.18486910	      0.89469841	      0.14772328	    -14.71439837	      4.58865462	     -4.50813490	    -17.91776941	     14.16648796	      4.82431790	     32.13414368	     -6.72738597	    -21.63724610	    -25.82641483	      1.95694303	    -10.28977222	     -4.39623805	      0.78624271	      8.41881709
      1.52000000	      3.05864590	     -4.14175557	     45.82034866	      0.19151938	      0.89517843	      0.13812117	    -14.83120424	      3.89320996	     -4.63769948	    -18.81267476	     12.90628844	      5.13414879	     32.08603965	     -5.95263060	    -21.17072962	    -26.85783878	      1.50178742	    -11.22285355	     -3.93978077	     -0.07528271	      8.15804586
      1.53000000	      2.56327717	     -3.69827721	     46.24365915	      0.19800136	      0.89596410	      0.12820988	    -14.92044806	      3.16215119	     -4.93255504	    -19.82626656	     11.48236332	      5.42155962	     31.93837826	     -5.01893411	    -20.51566268	    -27.77930071	      1.25165371	    -11.89279841	     -3.53502123	     -0.97705649	      7.83520525
      1.54000000	      2.09489138	     -3.21917396	     46.74330747	      0.20432792	      0.89703247	      0.11808536	    -14.96493265	      2.42609157	     -5.33527757	    -20.98781887	      9.88423074	      5.67297726	     31.67240280	     -3.99954669	    -19.76138807	    -28.58193866	      1.20437017	    -12.31868912	     -3.19739191	     -1.87577043	      7.48368713
      1.55000000	      1.66002012	     -2.75546330	     47.29589685	      0.21048926	      0.89829085	      0.10786609	    -14.89882838	      1.71727547	     -5.81796690	    -22.33646885	      8.11110003	      5.79251117	     31.32326588	     -2.96926599	    -18.97725119	    -29.27168661	      1.29848847	    -12.46785977	     -2.89954868	     -2.72399389	      7.10642207
      1.56000000	      1.29541710	     -2.27084066	     47.84522090	      0.21649367	      0.89978153	      0.09763746	    -14.74395769	      1.00432230	     -6.35842259	    -23.91876333	      6.17444274	      6.03907239	     30.80736829	     -1.96611489	    -18.25094761	    -29.81917575	      1.60060767	    -12.53808050	     -2.71164305	     -3.51527237	      6.81172838
      1.57000000	      0.97857177	     -1.82280581	     48.36404514	      0.22234666	      0.90138274	      0.08750626	    -14.42377526	      0.31063923	     -6.85732954	    -25.73614098	      4.07477317	      6.27712872	     30.19170111	     -1.04521845	    -17.64866146	    -30.22944737	      2.02073754	    -12.48188386	     -2.56521579	     -4.21779754	      6.54376363
      1.58000000	      0.71664877	     -1.40579401	     48.81696543	      0.22805336	      0.90306676	      0.07756704	    -13.92782408	     -0.37609544	     -7.26704317	    -27.80485158	      1.84690997	      6.57394886	     29.46363140	     -0.23068305	    -17.21297112	    -30.49220192	      2.56076796	    -12.33445886	     -2.47534666	     -4.83111756	      6.34529046
